<?xml version="1.0" encoding="UTF-8"?>
<svg version="1.1" xmlns="http://www.w3.org/2000/svg" width="459" height="457">
<path d="M0 0 C-0.59312988 0.34144043 -1.18625977 0.68288086 -1.79736328 1.03466797 C-22.73440814 13.13009644 -41.36975841 26.40981583 -59 43 C-59.65871094 43.61617187 -60.31742187 44.23234375 -60.99609375 44.8671875 C-66.14579166 49.83848941 -70.59420352 55.36958916 -75 61 C-75.42829102 61.5465625 -75.85658203 62.093125 -76.29785156 62.65625 C-111.3664999 107.80681406 -127.41055432 166.01997309 -120.8125 222.75 C-119.32055038 234.35042914 -117.06455327 245.71429423 -114 257 C-113.77393066 257.83354004 -113.54786133 258.66708008 -113.31494141 259.52587891 C-106.75095315 282.85384552 -95.38074154 305.54099518 -81 325 C-80.35901367 325.88679443 -80.35901367 325.88679443 -79.70507812 326.79150391 C-73.84008456 334.88675048 -67.33745694 342.29614531 -60.42871094 349.50830078 C-59.11334782 350.88165496 -57.8099915 352.2664824 -56.5078125 353.65234375 C-49.88966631 360.5200266 -42.60943355 366.29085706 -35 372 C-34.43796875 372.42812988 -33.8759375 372.85625977 -33.296875 373.29736328 C-23.74126827 380.55058229 -13.6323258 386.46475805 -3 392 C-1.99791504 392.52956299 -1.99791504 392.52956299 -0.97558594 393.06982422 C48.95758111 419.16046603 109.04011904 422.32639079 162.54248047 406.21630859 C193.53613635 396.22341063 221.66304272 379.75982513 245.34375 357.4453125 C248 355 248 355 250.6484375 352.89453125 C253.45210302 350.63576418 255.61910841 348.15869052 257.94140625 345.421875 C259.40314573 343.7021815 260.89330702 342.00646829 262.40234375 340.328125 C275.57606286 325.52219814 285.75094916 308.45385401 295 291 C296.20950249 294.62850747 295.70041344 295.47020085 294.33203125 298.953125 C293.74325195 300.45383545 293.74325195 300.45383545 293.14257812 301.98486328 C292.70365234 303.0623584 292.26472656 304.13985352 291.8125 305.25 C291.36197266 306.3622998 290.91144531 307.47459961 290.44726562 308.62060547 C283.38372154 325.68761605 274.89312858 342.05646868 264 357 C263.59571777 357.5583252 263.19143555 358.11665039 262.77490234 358.69189453 C256.73372398 366.96469328 250.10252526 374.62041826 243 382 C242.39881348 382.62841797 241.79762695 383.25683594 241.17822266 383.90429688 C232.34749015 393.08843649 223.31138289 401.50799346 213 409 C211.95585937 409.76570313 210.91171875 410.53140625 209.8359375 411.3203125 C176.54396041 435.02948725 137.73700218 449.95919009 97 454 C95.89269531 454.11085938 94.78539062 454.22171875 93.64453125 454.3359375 C32.50872666 459.5419784 -29.33812301 440.77982863 -76.39453125 401.26953125 C-88.86267914 390.40897065 -100.9116147 379.15382714 -111 366 C-111.47663086 365.38334473 -111.95326172 364.76668945 -112.44433594 364.13134766 C-149.88296913 315.31940098 -166.99594121 252.97537326 -159.25 191.86328125 C-150.66067516 129.05296472 -119.02810564 72.97748518 -68.5 34.3125 C-60.0151796 27.9035861 -51.25451441 22.22756266 -42 17 C-41.35901367 16.63165039 -40.71802734 16.26330078 -40.05761719 15.88378906 C-31.1744034 10.81080962 -22.07666473 6.63696334 -12.5625 2.875 C-11.54865234 2.47216797 -10.53480469 2.06933594 -9.49023438 1.65429688 C-8.54599609 1.29142578 -7.60175781 0.92855469 -6.62890625 0.5546875 C-5.78400635 0.22968262 -4.93910645 -0.09532227 -4.06860352 -0.43017578 C-2 -1 -2 -1 0 0 Z " fill="#173054" transform="translate(161,2)"/>
<path d="M0 0 C0.91168945 0.19867676 1.82337891 0.39735352 2.76269531 0.60205078 C39.79233677 8.921568 72.65955688 26.81668194 100 53 C100.49886719 53.47163574 100.99773437 53.94327148 101.51171875 54.42919922 C109.50439292 62.01350733 116.50921165 70.09751889 123 79 C123.41991211 79.57556641 123.83982422 80.15113281 124.27246094 80.74414062 C155.0630533 123.57695529 166.74435678 177.34148801 158.96875 229.296875 C152.71540168 267.46297197 136.44455486 303.18848198 110.109375 331.703125 C108.22100188 333.75935351 106.42019417 335.86286408 104.625 338 C85.05569226 360.35209921 55.26870495 379.0714145 27 388 C24.77661133 387.57055664 24.77661133 387.57055664 23 387 C24.13695312 386.39414062 25.27390625 385.78828125 26.4453125 385.1640625 C51.89961178 371.42849264 73.82939318 353.43692791 91 330 C91.41604492 329.43361816 91.83208984 328.86723633 92.26074219 328.28369141 C110.07923141 303.66139365 121.57262744 275.05825115 126 245 C126.10022461 244.3594165 126.20044922 243.71883301 126.30371094 243.05883789 C129.02168296 222.93762329 128.5959283 199.76290464 124 180 C123.80132324 179.13342773 123.60264648 178.26685547 123.39794922 177.37402344 C115.73430354 144.96282981 100.98355729 116.89905956 79 92 C77.9171875 90.73349609 77.9171875 90.73349609 76.8125 89.44140625 C72.54038687 84.49343147 68.05831397 80.13557013 63 76 C62.02675781 75.18917969 61.05351562 74.37835938 60.05078125 73.54296875 C20.65903592 41.27757496 -29.29434499 26.12482829 -80 31 C-122.52921203 35.42126954 -161.39257503 54.44347374 -192 84 C-192.84949219 84.79792969 -193.69898438 85.59585938 -194.57421875 86.41796875 C-204.32260374 95.79906765 -212.13835914 106.35907429 -219.375 117.75 C-219.86274902 118.51755615 -220.35049805 119.2851123 -220.85302734 120.07592773 C-224.25944652 125.55207736 -227.2047089 131.19005981 -230 137 C-230.66 136.67 -231.32 136.34 -232 136 C-227.78115603 123.87082357 -223.16428319 112.27559273 -217 101 C-216.61972656 100.30132812 -216.23945313 99.60265625 -215.84765625 98.8828125 C-208.36396389 85.28948276 -199.42587922 73.50608666 -188.91796875 62.10546875 C-187.34902735 60.38314815 -185.88041241 58.63891072 -184.4375 56.8125 C-181.25575756 53.14125873 -177.70293694 50.13279268 -174 47 C-173.04996094 46.16210938 -172.09992188 45.32421875 -171.12109375 44.4609375 C-163.21504766 37.53154248 -154.95255396 31.50842558 -146 26 C-145.33436035 25.5889502 -144.6687207 25.17790039 -143.98291016 24.75439453 C-124.24661286 12.75708682 -102.54642744 4.79003838 -80 0 C-79.19868652 -0.17644043 -78.39737305 -0.35288086 -77.57177734 -0.53466797 C-53.25649789 -5.65127213 -24.23241148 -5.37478557 0 0 Z " fill="#F4D143" transform="translate(298,3)"/>
<path d="M0 0 C0.83008575 -0.00137466 1.66017151 -0.00274933 2.51541138 -0.00416565 C3.41740265 -0.00057037 4.31939392 0.0030249 5.24871826 0.00672913 C6.20515228 0.0065831 7.1615863 0.00643707 8.14700317 0.00628662 C11.30690787 0.00698303 14.46675355 0.01476278 17.62664795 0.02259827 C19.81811491 0.02446341 22.00958228 0.02588686 24.2010498 0.02688599 C29.96813102 0.03070358 35.73518704 0.04052743 41.5022583 0.05158997 C47.38746805 0.06182036 53.27268187 0.0663871 59.15789795 0.07142639 C70.70478402 0.08215035 82.25165139 0.09921771 93.79852295 0.12025452 C93.89139089 12.85548139 93.9623733 25.59062708 94.00577164 38.32612419 C94.0266055 44.24037044 94.05484662 50.15438422 94.10028076 56.0684967 C94.14388795 61.78084204 94.16769163 67.49296441 94.17803192 73.20546341 C94.18539659 75.37986381 94.1997779 77.55425265 94.22144318 79.72855759 C94.25067449 82.78500556 94.25447068 85.8405437 94.25262451 88.89710999 C94.26700562 89.78688034 94.28138672 90.6766507 94.29620361 91.59338379 C94.23393897 101.18162598 90.65131338 110.29674951 83.79852295 117.12025452 C76.0355221 122.98158066 67.66267926 126.26051479 57.79852295 125.12025452 C47.8473819 123.20099068 40.12336076 118.59415822 34.08758545 110.44056702 C30.53971807 104.05440573 29.35642649 98.65045659 29.5055542 91.46400452 C29.50979904 90.67626648 29.51404388 89.88852844 29.51841736 89.07691956 C29.53504678 86.59099862 29.57266681 84.10592532 29.61102295 81.62025452 C29.62609023 79.92234966 29.63977504 78.22443194 29.65203857 76.52650452 C29.68489829 72.39076733 29.73656821 68.25565401 29.79852295 64.12025452 C28.76034424 64.14120178 27.72216553 64.16214905 26.65252686 64.18373108 C22.7574879 64.2567741 18.86250798 64.30228485 14.96697998 64.33998108 C13.28914164 64.35995151 11.61137159 64.38713784 9.93377686 64.42201233 C-2.45796315 64.67294691 -12.87072112 64.30121399 -22.3772583 55.29603577 C-28.16099467 48.3976607 -31.59246053 40.15631722 -31.20147705 31.12025452 C-30.18443923 21.16239171 -26.6764666 13.78185672 -19.4241333 6.88197327 C-13.87577713 2.48424281 -7.07846522 -0.00907496 0 0 Z " fill="#3D7DA2" transform="translate(126.20147705078125,239.87974548339844)"/>
<path d="M0 0 C12.47448608 -0.0696578 24.94892551 -0.12289137 37.42356682 -0.15543652 C43.2166928 -0.17106032 49.00968524 -0.19223859 54.80273438 -0.22631836 C60.39836049 -0.25902892 65.99385852 -0.2768777 71.58957291 -0.28463173 C73.71930074 -0.29015426 75.84902194 -0.30093825 77.97869492 -0.31719017 C80.97276446 -0.33911984 83.96631167 -0.34196044 86.96044922 -0.34057617 C88.26705254 -0.35675491 88.26705254 -0.35675491 89.60005188 -0.3732605 C99.40101851 -0.32455805 107.81629085 2.15616526 115 9 C122.71319105 17.44778068 124.60737814 24.992406 124.34765625 36.375 C123.87543965 41.2987866 122.6282342 44.84543104 120 49 C119.34644531 50.06154297 119.34644531 50.06154297 118.6796875 51.14453125 C113.98111372 58.06401558 108.000766 61.76369675 100 64 C97.14327959 64.16273122 94.39114659 64.23423027 91.5390625 64.1953125 C90.74849457 64.1924826 89.95792664 64.18965271 89.1434021 64.18673706 C86.63710916 64.17560955 84.13118355 64.15051926 81.625 64.125 C79.91797394 64.11496058 78.21094223 64.10583641 76.50390625 64.09765625 C72.3357976 64.07569463 68.16796092 64.04121671 64 64 C64.0314209 65.51182861 64.0314209 65.51182861 64.06347656 67.05419922 C64.13654753 70.83741732 64.18204009 74.62057468 64.21972656 78.40429688 C64.23969079 80.03363578 64.2668723 81.66290445 64.30175781 83.29199219 C64.55590338 95.47602969 63.76814448 105.29480259 55.82421875 115.1796875 C49.00325276 121.98604757 40.95482246 124.44862755 31.625 125.3125 C22.14243646 124.49503763 14.77255997 121.83844091 8 115 C1.59879737 107.10152036 -0.30590991 100.15758229 -0.22705078 90.13916016 C-0.22734283 89.16292694 -0.22763489 88.18669373 -0.22793579 87.18087769 C-0.22654687 83.96684763 -0.21100612 80.75305186 -0.1953125 77.5390625 C-0.19158082 75.30561449 -0.18873458 73.07216484 -0.18673706 70.8387146 C-0.17911284 64.96970067 -0.15947467 59.10078623 -0.1373291 53.23181152 C-0.11684463 47.23919012 -0.10772978 41.24655259 -0.09765625 35.25390625 C-0.07622771 23.50256053 -0.04210631 11.75128855 0 0 Z " fill="#3E7DA2" transform="translate(253,240)"/>
<path d="M0 0 C8.48672888 5.0748345 14.07730903 11.69909835 16.85967159 21.26377487 C17.32458775 23.43937783 17.4356038 25.36184602 17.43275452 27.58428955 C17.43481651 28.82941818 17.43481651 28.82941818 17.43692017 30.09970093 C17.43152725 31.45268784 17.43152725 31.45268784 17.42602539 32.83300781 C17.42617142 33.78944183 17.42631744 34.74587585 17.4264679 35.73129272 C17.42577148 38.89119742 17.41799174 42.0510431 17.41015625 45.2109375 C17.40829111 47.40240446 17.40686766 49.59387183 17.40586853 51.78533936 C17.40205094 57.55242057 17.39222709 63.31947659 17.38116455 69.08654785 C17.37093416 74.9717576 17.36636742 80.85697142 17.36132812 86.7421875 C17.35060417 98.28907357 17.33353681 109.83594094 17.3125 121.3828125 C4.35112349 121.5222286 -8.61007274 121.62864472 -21.57204819 121.69368553 C-27.59175983 121.7249122 -33.61095603 121.7672272 -39.63037109 121.83544922 C-45.44649526 121.90094985 -51.26212566 121.93658361 -57.07859039 121.95207596 C-59.29045629 121.96310725 -61.50229713 121.98464839 -63.71395111 122.01719284 C-87.927298 122.3591133 -87.927298 122.3591133 -97.887146 113.40536499 C-104.20538921 106.96534935 -107.28021531 99.22471919 -107.78125 90.28125 C-107.45168549 80.09221377 -104.05479089 72.79945778 -96.98828125 65.66796875 C-89.63180919 58.90662701 -81.80555802 57.21229989 -71.98046875 57.28515625 C-70.89237663 57.28727867 -70.89237663 57.28727867 -69.78230286 57.28944397 C-67.4798255 57.29501319 -65.17744765 57.30755989 -62.875 57.3203125 C-61.30794412 57.32533148 -59.7408867 57.32989369 -58.17382812 57.33398438 C-54.34501411 57.34497252 -50.51627389 57.36221577 -46.6875 57.3828125 C-46.70844727 56.37492676 -46.72939453 55.36704102 -46.75097656 54.32861328 C-46.82404753 50.54539518 -46.86954009 46.76223782 -46.90722656 42.97851562 C-46.92719079 41.34917672 -46.9543723 39.71990805 -46.98925781 38.09082031 C-47.25061859 25.56087718 -46.63298986 15.69722359 -37.61328125 6.13671875 C-27.33977517 -3.21988212 -12.80840427 -6.02500596 0 0 Z " fill="#407DA2" transform="translate(202.6875,85.6171875)"/>
<path d="M0 0 C8.54704764 5.11090349 13.72956165 11.59376475 16.86108398 21.03710938 C17.51235077 24.42130154 17.43465278 27.77912916 17.41015625 31.2109375 C17.4087413 31.95994324 17.40732635 32.70894897 17.40586853 33.48065186 C17.40028659 35.86474662 17.38773745 38.24874628 17.375 40.6328125 C17.36998266 42.25260281 17.36542016 43.87239459 17.36132812 45.4921875 C17.35032308 49.45576562 17.33307091 53.41927295 17.3125 57.3828125 C18.2597998 57.36710205 19.20709961 57.3513916 20.18310547 57.33520508 C23.74289573 57.28366749 27.30228183 57.24626575 30.86230469 57.21801758 C32.39459543 57.20305506 33.92684429 57.18267753 35.45898438 57.15649414 C47.93265378 56.94887105 58.82552446 57.34468312 68.3125 66.3828125 C76.00410767 74.80695423 77.91967399 82.33641954 77.66015625 93.6875 C76.88669388 101.90879663 73.58425731 108.93488771 67.3125 114.3828125 C61.41337401 118.50846707 56.33297034 121.5122352 49.03509521 121.50306702 C47.76472412 121.50512901 47.76472412 121.50512901 46.46868896 121.50723267 C45.54799622 121.50363739 44.62730347 121.50004211 43.67871094 121.49633789 C42.21479919 121.49655693 42.21479919 121.49655693 40.72131348 121.4967804 C37.49647802 121.4960839 34.27170037 121.48830376 31.046875 121.48046875 C28.81056754 121.47860364 26.57425967 121.47718017 24.33795166 121.47618103 C18.45250317 121.47236321 12.56707936 121.46253916 6.68164062 121.45147705 C0.67578465 121.44124716 -5.33007532 121.43668002 -11.3359375 121.43164062 C-23.11980251 121.42091626 -34.9036492 121.40384862 -46.6875 121.3828125 C-46.78036794 108.64758563 -46.85135035 95.91243994 -46.89474869 83.17694283 C-46.91558255 77.26269658 -46.94382368 71.3486828 -46.98925781 65.43457031 C-47.032865 59.72222498 -47.05666868 54.01010261 -47.06700897 48.29760361 C-47.07437364 46.1232032 -47.08875495 43.94881437 -47.11042023 41.77450943 C-47.13965154 38.71806146 -47.14344773 35.66252331 -47.14160156 32.60595703 C-47.16317322 31.2713015 -47.16317322 31.2713015 -47.18518066 29.90968323 C-47.12482696 20.61571045 -43.980419 12.88561209 -37.61328125 6.13671875 C-27.33977517 -3.21988212 -12.80840427 -6.02500596 0 0 Z " fill="#3E7CA2" transform="translate(299.6875,85.6171875)"/>
<path d="M0 0 C8.41292186 5.0306999 14.01838046 11.59292718 16.81054688 21.07397461 C19.25364224 32.31150031 21.67460998 49.65670101 16.32720947 60.3538208 C11.4005972 67.95834972 4.1311558 73.81629106 -3.00854492 79.25927734 C-5.78644934 81.46124696 -8.20522813 83.85637576 -10.6875 86.3828125 C-11.698125 87.2078125 -12.70875 88.0328125 -13.75 88.8828125 C-16.67319987 91.20508225 -16.67319987 91.20508225 -18.5625 93.7578125 C-20.39340483 96.01951847 -22.09340175 97.65630832 -24.296875 99.51953125 C-29.56223207 104.0735468 -34.36861901 109.04576175 -39.21484375 114.03710938 C-40.23384766 115.07254883 -40.23384766 115.07254883 -41.2734375 116.12890625 C-42.18681885 117.06754517 -42.18681885 117.06754517 -43.11865234 118.02514648 C-44.6875 119.3828125 -44.6875 119.3828125 -46.6875 119.3828125 C-46.78037686 106.90835458 -46.85135484 94.43397958 -46.89474869 81.95924568 C-46.91558063 76.16606516 -46.94381816 70.37312204 -46.98925781 64.58007812 C-47.03287197 58.9844417 -47.05667012 53.38903295 -47.06700897 47.79323959 C-47.07437241 45.66349583 -47.08875128 43.53376384 -47.11042023 41.40411758 C-47.13966093 38.40993029 -47.14344736 35.41667147 -47.14160156 32.42236328 C-47.15598267 31.5512944 -47.17036377 30.68022552 -47.18518066 29.78276062 C-47.12400928 20.55008242 -43.93279424 12.83513188 -37.61328125 6.13671875 C-27.33977517 -3.21988212 -12.80840427 -6.02500596 0 0 Z " fill="#11669A" transform="translate(299.6875,85.6171875)"/>
<path d="M0 0 C1.97908323 -0.01179541 3.95814288 -0.02880755 5.93713379 -0.05126953 C31.58042645 -0.32792323 31.58042645 -0.32792323 41.61529541 9.23217773 C49.32848647 17.67995841 51.22267355 25.22458373 50.96295166 36.60717773 C50.49073506 41.53096433 49.24352961 45.07760877 46.61529541 49.23217773 C45.96174072 50.2937207 45.96174072 50.2937207 45.29498291 51.37670898 C40.58012983 58.32016748 34.61994645 61.94808751 26.61529541 64.23217773 C21.25824068 64.90411491 15.81364618 64.85737923 10.42169189 64.93237305 C8.6805879 64.96548437 6.93975553 65.02006374 5.20001221 65.09643555 C-9.14170908 65.72099219 -9.14170908 65.72099219 -14.13006592 62.40991211 C-16.43454813 59.80930854 -18.36832792 57.0611036 -20.38470459 54.23217773 C-22.42065218 52.02380108 -24.57244448 49.94358372 -26.73236084 47.85717773 C-27.84328001 46.76042541 -28.9533021 45.6627637 -30.06243896 44.56420898 C-31.77246369 42.87924774 -33.48410541 41.19598189 -35.19793701 39.51489258 C-36.88037382 37.86244446 -38.5567052 36.20399763 -40.23236084 34.54467773 C-41.01027733 33.78695068 -41.01027733 33.78695068 -41.8039093 33.01391602 C-43.03586158 31.79079244 -44.21584797 30.51573214 -45.38470459 29.23217773 C-45.38470459 28.57217773 -45.38470459 27.91217773 -45.38470459 27.23217773 C-46.00345459 26.98467773 -46.62220459 26.73717773 -47.25970459 26.48217773 C-49.77180755 25.00447011 -50.14577803 23.79262597 -51.38470459 21.23217773 C-52.37470459 20.90217773 -53.36470459 20.57217773 -54.38470459 20.23217773 C-55.89251709 18.70092773 -55.89251709 18.70092773 -57.50970459 16.73217773 C-60.99430175 12.5984158 -64.76033285 8.85386284 -68.66204834 5.11499023 C-70.38470459 3.23217773 -70.38470459 3.23217773 -70.38470459 1.23217773 C-46.9272269 0.64644181 -23.46513907 0.11851318 0 0 Z " fill="#11669B" transform="translate(326.38470458984375,239.767822265625)"/>
<path d="M0 0 C1.78445562 -0.05941189 3.56811426 -0.15457515 5.34863281 -0.28710938 C19.4461344 -1.32390214 19.4461344 -1.32390214 25.34112549 2.51464844 C29.76478041 6.36229434 33.33248817 10.94448867 37.00344849 15.49328613 C40.79223534 19.96904829 44.98169656 24.03967493 49.16053581 28.14626312 C51.16828066 30.12195044 53.16233476 32.11119217 55.15698338 34.10008621 C57.68843101 36.62334901 60.22510594 39.14134979 62.76098633 41.66015625 C66.35512929 45.23058102 69.94750789 48.80275047 73.53581238 52.37904358 C74.95863742 53.79540321 76.38450934 55.20869993 77.8104248 56.62194824 C78.65971558 57.46793579 79.50900635 58.31392334 80.3840332 59.18554688 C81.13519409 59.93147095 81.88635498 60.67739502 82.66027832 61.44592285 C84.26098633 63.16015625 84.26098633 63.16015625 84.26098633 64.16015625 C71.42999506 64.29958002 58.59918596 64.40599229 45.76758957 64.47102928 C39.80840928 64.50225432 33.84974978 64.5445662 27.89086914 64.61279297 C22.13309915 64.67829961 16.375828 64.71392859 10.61771393 64.72941971 C8.42817591 64.74044994 6.23866317 64.76198899 4.04933929 64.79453659 C-19.97488605 65.13727573 -19.97488605 65.13727573 -29.93951416 56.18270874 C-36.25634174 49.74107866 -39.33169716 42.00263106 -39.83276367 33.05859375 C-39.50319916 22.86955752 -36.10630456 15.57680153 -29.03979492 8.4453125 C-20.39735586 0.50203705 -11.18522066 0.27650459 0 0 Z " fill="#12669B" transform="translate(134.739013671875,142.83984375)"/>
<path d="M0 0 C0.35910251 17.14093836 0.6731382 34.28234481 0.94281006 51.42492676 C0.99636226 54.77259631 1.05377276 58.12017934 1.11181641 61.46777344 C1.19153254 66.21680602 1.24891904 70.96557484 1.28710938 75.71511841 C1.30387261 77.42994541 1.32765756 79.14471992 1.35888672 80.85934448 C1.5684366 92.77204917 0.53900267 102.56056233 -7.171875 112.1796875 C-13.80332972 118.78280267 -21.72496051 121.57459359 -30.875 122.3125 C-40.38860995 121.99600026 -49.24537139 118.01416074 -55.7890625 111.11328125 C-61.17295128 104.36352906 -63.43552856 97.19874194 -63.85546875 88.6875 C-63.91526665 87.53618088 -63.91526665 87.53618088 -63.97627258 86.36160278 C-64.07991287 83.90736966 -64.14326614 81.45600117 -64.1875 79 C-64.20312988 78.16740662 -64.21875977 77.33481323 -64.23486328 76.47698975 C-64.30530305 67.13943106 -64.30187566 59.25022967 -57.66137695 52.03515625 C-54.93997584 49.63006845 -52.16169801 47.46777318 -49.13671875 45.45800781 C-43.16566785 41.38361156 -38.02662704 36.16472119 -33 31 C-29.84700689 27.7603862 -26.64629348 24.66090849 -23.21484375 21.71484375 C-18.42141064 17.56951109 -14.00482766 13.07759306 -9.5625 8.5625 C-7.96190783 6.93656196 -6.35916813 5.31273413 -4.75390625 3.69140625 C-4.05595947 2.98185791 -3.3580127 2.27230957 -2.63891602 1.54125977 C-1 0 -1 0 0 0 Z " fill="#11659A" transform="translate(219,243)"/>
<path d="M0 0 C16.83 0 33.66 0 51 0 C51 0.33 51 0.66 51 1 C35.16 1 19.32 1 3 1 C8.82576334 7.67208113 8.82576334 7.67208113 14.9375 14 C16.09572266 15.1446875 16.09572266 15.1446875 17.27734375 16.3125 C17.84582031 16.869375 18.41429687 17.42625 19 18 C18.67 18.66 18.34 19.32 18 20 C17.52578613 19.52054932 17.05157227 19.04109863 16.56298828 18.54711914 C14.41959665 16.38298162 12.2723561 14.22270353 10.125 12.0625 C9.37863281 11.30775391 8.63226563 10.55300781 7.86328125 9.77539062 C7.14785156 9.05673828 6.43242187 8.33808594 5.6953125 7.59765625 C4.7055542 6.60004272 4.7055542 6.60004272 3.69580078 5.58227539 C2.07326068 3.9186289 2.07326068 3.9186289 0 3 C0 2.01 0 1.02 0 0 Z " fill="#3CA0B9" transform="translate(253,240)"/>
</svg>
